<svg width="32" height="32" viewBox="0 0 32 32" fill="none" xmlns="http://www.w3.org/2000/svg">
  <g clipPath="url(#clip0_640_9344)">
    <path opacity="0.85"
      d="M26.1666 25.4668C27.5473 25.4668 28.6666 24.3475 28.6666 22.9668C28.6666 21.5861 27.5473 20.4668 26.1666 20.4668C24.7859 20.4668 23.6666 21.5861 23.6666 22.9668C23.6666 24.3475 24.7859 25.4668 26.1666 25.4668Z"
      fill="#25CBDB" />
    <path
      d="M28.4333 9.40016C28.0533 9.02016 27.58 8.8335 27 8.8335H17.3333V12.9002C17.3333 13.8335 17.02 14.6268 16.3867 15.2802C15.7533 15.9335 14.9733 16.2668 14.0333 16.2668H11.7333C11.8733 16.3868 12.02 16.5135 12.1533 16.6468C13.3867 17.8802 14 19.3735 14 21.1335C14 21.4802 13.9667 21.8068 13.92 22.1335H21.76C21.9333 21.2735 22.36 20.5068 23.0333 19.8335C23.9467 18.9202 25.02 18.4668 26.2667 18.4668C27.32 18.4668 28.2333 18.7868 29 19.4202V10.8335C29 10.2535 28.8133 9.78016 28.4333 9.40016Z"
      fill="#25CBDB" />
    <path opacity="0.85"
      d="M7.66665 16.8C5.27331 16.8 3.33331 18.74 3.33331 21.1334C3.33331 23.5267 5.27331 25.4667 7.66665 25.4667C10.06 25.4667 12 23.5267 12 21.1334C12 18.74 10.06 16.8 7.66665 16.8ZM9.31998 22.78C8.86665 23.2334 8.31331 23.4667 7.66665 23.4667C7.01998 23.4667 6.47331 23.24 6.01998 22.78C5.56665 22.32 5.33331 21.7734 5.33331 21.1334C5.33331 20.4934 5.55998 19.94 6.01998 19.48C6.47998 19.02 7.02665 18.8 7.66665 18.8C8.30665 18.8 8.85998 19.0267 9.31998 19.48C9.77331 19.9334 9.99998 20.4867 9.99998 21.1334C9.99998 21.78 9.77331 22.3267 9.31998 22.78Z"
      fill="#25CBDB" />
    <path opacity="0.52"
      d="M29.4 19.7802C29.2733 19.6469 29.14 19.5269 29 19.4135C28.2333 18.7802 27.32 18.4602 26.2666 18.4602C25.02 18.4602 23.9466 18.9135 23.0333 19.8269C22.36 20.5002 21.9333 21.2669 21.76 22.1269C21.7 22.4269 21.6666 22.7402 21.6666 23.0602C21.6666 24.3069 22.1066 25.3469 22.9866 26.1935C23.8666 27.0402 24.9266 27.4602 26.1666 27.4602C27.4066 27.4602 28.4733 27.0202 29.3533 26.1402C30.2333 25.2602 30.6666 24.2002 30.6666 22.9602C30.6666 21.7202 30.2466 20.6535 29.4 19.7735V19.7802ZM27.9333 24.7335C27.4466 25.2202 26.8533 25.4669 26.1666 25.4669C25.48 25.4669 24.8866 25.2202 24.4 24.7335C23.9133 24.2469 23.6666 23.6535 23.6666 22.9669C23.6666 22.2802 23.9133 21.6869 24.4 21.2002C24.8866 20.7135 25.48 20.4669 26.1666 20.4669C26.8533 20.4669 27.4466 20.7135 27.9333 21.2002C28.42 21.6869 28.6666 22.2802 28.6666 22.9669C28.6666 23.6535 28.42 24.2469 27.9333 24.7335Z"
      fill="#25CBDB" />
    <path opacity="0.52"
      d="M12.1533 16.6467C12.02 16.5134 11.8733 16.3867 11.7333 16.2667C10.5866 15.2934 9.23331 14.8 7.66665 14.8C5.91331 14.8 4.41331 15.4134 3.18665 16.6467C1.95331 17.88 1.33331 19.3734 1.33331 21.1334C1.33331 22.8934 1.93998 24.3867 3.15331 25.6134C4.36665 26.8467 5.84665 27.4667 7.59998 27.4667C9.35331 27.4667 10.9133 26.8467 12.1533 25.6134C13.1466 24.62 13.7333 23.46 13.9266 22.1334C13.9733 21.8067 14.0066 21.48 14.0066 21.1334C14.0066 19.38 13.3933 17.88 12.16 16.6467H12.1533ZM10.74 24.1934C9.89331 25.04 8.87331 25.46 7.67331 25.46C6.47331 25.46 5.45331 25.04 4.60665 24.1934C3.75998 23.3467 3.33998 22.3267 3.33998 21.1267C3.33998 19.9267 3.75998 18.9067 4.60665 18.06C5.45331 17.2134 6.47331 16.7934 7.67331 16.7934C8.87331 16.7934 9.89331 17.2134 10.74 18.06C11.5866 18.9067 12.0066 19.9267 12.0066 21.1267C12.0066 22.3267 11.5866 23.3467 10.74 24.1934Z"
      fill="#25CBDB" />
    <path opacity="0.32"
      d="M17.9333 8.83345L16.3 7.20011L18.3667 5.13345L17.7667 4.53345L13.0333 9.26678L13.6667 9.86678L15.7 7.83345L17.3333 9.43345V8.83345H17.9333Z"
      fill="#25CBDB" />
    <path opacity="0.52"
      d="M7.66665 18.8C7.01998 18.8 6.47331 19.0267 6.01998 19.48C5.56665 19.9334 5.33331 20.4867 5.33331 21.1334C5.33331 21.78 5.55998 22.3267 6.01998 22.78C6.47998 23.2334 7.02665 23.4667 7.66665 23.4667C8.30665 23.4667 8.85998 23.24 9.31998 22.78C9.77331 22.3267 9.99998 21.7734 9.99998 21.1334C9.99998 20.4934 9.77331 19.94 9.31998 19.48C8.86665 19.0267 8.31331 18.8 7.66665 18.8Z"
      fill="#25CBDB" />
    <path opacity="0.32"
      d="M4.83329 12.8335H12C11.8866 12.3002 11.6533 11.8335 11.3 11.4335C10.9466 11.0335 10.4466 10.8335 9.79995 10.8335H4.83329C4.58662 10.8335 4.37996 10.9335 4.19996 11.1335C4.01996 11.3335 3.93329 11.5668 3.93329 11.8335C3.93329 12.1002 4.01996 12.3335 4.19996 12.5335C4.37996 12.7335 4.58662 12.8335 4.83329 12.8335Z"
      fill="#25CBDB" />
  </g>
  <defs>
    <clipPath id="clip0_640_9344">
      <rect width="32" height="32" fill="white" />
    </clipPath>
  </defs>
</svg>