<svg width="32" height="32" viewBox="0 0 32 32" fill="none" xmlns="http://www.w3.org/2000/svg">
  <g clipPath="url(#clip0_640_9348)">
    <path opacity="0.5"
      d="M16 29.3333C14.18 29.3333 12.4533 28.9867 10.8333 28.28C9.21329 27.58 7.79329 26.6267 6.57996 25.4133C5.36663 24.2 4.41329 22.7867 3.71329 21.16C3.01329 19.54 2.66663 17.8133 2.66663 15.9933C2.66663 14.1733 3.01996 12.4133 3.71329 10.7933C4.41329 9.17332 5.36663 7.75999 6.57996 6.55999C7.79329 5.35999 9.20663 4.41332 10.8333 3.70665C12.4533 3.00665 14.18 2.65332 16 2.65332C17.82 2.65332 19.58 3.00665 21.2 3.69999C22.82 4.39999 24.2333 5.35332 25.4333 6.55332C26.6333 7.75332 27.5866 9.16665 28.2866 10.7867C28.9866 12.4067 29.34 14.14 29.34 15.9867C29.34 17.8333 28.9933 19.5333 28.2866 21.1533C27.5866 22.7733 26.6333 24.1933 25.4333 25.4067C24.2333 26.62 22.82 27.5733 21.2 28.2733C19.58 28.9733 17.8466 29.3267 16 29.3267V29.3333Z"
      fill="#25CBDB" />
    <path
      d="M16 4.66675C17.56 4.66675 19.0466 4.96675 20.4066 5.55341C21.7866 6.14675 23 6.96675 24.02 7.98008C25.0333 8.99341 25.8533 10.2134 26.4466 11.5934C27.0333 12.9534 27.3333 14.4401 27.3333 16.0001C27.3333 17.5601 27.0333 19.0134 26.4466 20.3734C25.8466 21.7601 25.0333 22.9801 24.0133 24.0067C23 25.0267 21.7866 25.8467 20.4066 26.4467C19.0466 27.0334 17.56 27.3334 16 27.3334C14.44 27.3334 12.9866 27.0334 11.6266 26.4467C10.2466 25.8534 9.02664 25.0267 7.99997 24.0001C6.97331 22.9734 6.15331 21.7534 5.55331 20.3734C4.96664 19.0134 4.66664 17.5401 4.66664 16.0001C4.66664 14.4601 4.96664 12.9534 5.55331 11.5934C6.14664 10.2134 6.96664 9.00008 7.99331 7.98675C9.01997 6.96675 10.2466 6.14675 11.6266 5.55341C12.9866 4.96675 14.46 4.66675 16 4.66675ZM16 2.66675C14.18 2.66675 12.4533 3.02008 10.8333 3.72008C9.21331 4.42008 7.79331 5.36675 6.57997 6.56675C5.36664 7.76675 4.41331 9.18008 3.71331 10.8001C3.01331 12.4201 2.65997 14.1534 2.65997 16.0001C2.65997 17.8467 3.01331 19.5467 3.71331 21.1667C4.41331 22.7867 5.36664 24.2067 6.57997 25.4201C7.79331 26.6334 9.20664 27.5867 10.8333 28.2867C12.46 28.9867 14.18 29.3401 16 29.3401C17.82 29.3401 19.58 28.9867 21.2 28.2867C22.82 27.5867 24.2333 26.6334 25.4333 25.4201C26.6333 24.2067 27.58 22.7934 28.2866 21.1667C28.9866 19.5467 29.3333 17.8201 29.3333 16.0001C29.3333 14.1801 28.98 12.4201 28.2866 10.8001C27.5866 9.18008 26.6333 7.76675 25.4333 6.56675C24.2333 5.36675 22.82 4.42008 21.2 3.72008C19.58 3.02008 17.8466 2.66675 16 2.66675Z"
      fill="#25CBDB" />
    <path
      d="M16 20.8666L20.8667 16L16 11.1333L14.6 12.5333L17.0667 15H11V17H17.0667L14.6 19.4666L16 20.8666Z"
      fill="#25CBDB" />
  </g>
  <defs>
    <clipPath id="clip0_640_9348">
      <rect width="32" height="32" fill="white" />
    </clipPath>
  </defs>
</svg>