<svg width="32" height="32" viewBox="0 0 32 32" fill="none" xmlns="http://www.w3.org/2000/svg">
<path d="M5.05499 18.8624C5.07853 19.6388 5.20174 20.4089 5.42161 21.1538C6.17624 23.6193 8.85563 25.5533 11.3487 25.761H11.4159C10.3139 25.0412 9.46964 23.9894 9.00534 22.7578C7.90853 19.7576 9.92189 15.8745 13.1757 14.5088C14.4678 13.9984 15.8797 13.8711 17.2423 14.142C18.605 14.4129 19.8607 15.0706 20.8594 16.0364C23.1111 18.2208 23.0317 21.1202 22.9981 21.5632C22.9029 23.3099 22.203 24.969 21.0183 26.256C18.2045 29.2195 13.7959 28.5626 12.4241 28.3579C11.0096 28.1307 9.64076 27.6779 8.36986 27.0167C7.15363 26.3873 6.03669 25.5823 5.05499 24.6275C5.2047 24.9697 8.03074 31.129 14.4283 31.9233C15.189 32.018 19.4143 32.4549 22.9522 29.4303C24.6652 27.9613 25.8747 25.9923 26.4107 23.8002C26.9467 21.6082 26.7821 19.3033 25.9402 17.2096C25.4006 15.8555 24.592 14.6249 23.5633 13.5922C21.5865 11.6806 18.9781 10.559 16.2308 10.4393C13.4676 10.3415 10.7757 11.3283 8.73037 13.189C8.73037 9.62459 8.72222 6.06022 8.70593 2.49584C8.40041 0.82466 6.26179 -0.253818 5 0.0517002C5.00917 15.8042 5.05194 9.94436 5.02444 16.4672L5.05499 18.8624Z" fill="#222343"/>
</svg>
