<svg width="32" height="32" viewBox="0 0 32 32" fill="none" xmlns="http://www.w3.org/2000/svg">
  <g clipPath="url(#clip0_658_5849)">
    <path opacity="0.32"
      d="M26.1667 26.0933C27.5474 26.0933 28.6667 24.974 28.6667 23.5933C28.6667 22.2125 27.5474 21.0933 26.1667 21.0933C24.7859 21.0933 23.6667 22.2125 23.6667 23.5933C23.6667 24.974 24.7859 26.0933 26.1667 26.0933Z"
      fill="#25CBDB" />
    <path opacity="0.32" fill-rule="evenodd" clip-rule="evenodd"
      d="M3.33002 21.7633C3.33008 24.1564 5.27015 26.0965 7.66335 26.0965C10.0566 26.0965 11.9967 24.1564 11.9967 21.7632C11.9967 19.3988 10.1032 17.4768 7.74992 17.4307C7.72117 17.4302 7.69231 17.4299 7.66335 17.4299C7.63439 17.4299 7.60553 17.4302 7.57678 17.4307C5.22351 17.4768 3.33002 19.399 3.33002 21.7633C3.33002 21.7632 3.33002 21.7633 3.33002 21.7633ZM6.01002 23.4099C6.47002 23.8699 7.01668 24.0966 7.66335 24.0966C8.31002 24.0966 8.86335 23.8633 9.31668 23.4099C9.77002 22.9566 9.99668 22.4099 9.99668 21.7633C9.99668 21.1166 9.77002 20.5633 9.31668 20.1099C8.85668 19.6566 8.31002 19.4299 7.66335 19.4299C7.01668 19.4299 6.46335 19.6566 6.01002 20.1099C5.55668 20.5699 5.33002 21.1233 5.33002 21.7633C5.33002 22.4033 5.55668 22.9566 6.01002 23.4099Z"
      fill="#25CBDB" />
    <path
      d="M17.3333 10.0599L15.7 8.45991L13.6667 10.4932L13.0333 9.89325L17.7667 5.15991L18.3667 5.75991L16.3 7.82658L17.9333 9.45991"
      fill="#222343" />
    <path
      d="M17.3333 9.45996H27C27.58 9.45996 28.0533 9.64663 28.4333 10.0266C28.8133 10.4066 29 10.88 29 11.46V20.7266C28.58 20.48 28.3333 20 27.8733 19.8533C27.42 19.7066 26.6533 19.6066 26.1667 19.6066C24.88 19.6066 24.7 19.8666 23.6667 20.7266C22.6333 21.58 22.58 21.36 22.2467 22.76H13.26C13.28 22.58 13.1867 22.4133 13.2 22.26C13.2133 22.1066 13.2267 21.94 13.2267 21.76C13.2267 20.8733 13.16 20.0133 12.8667 19.1933C12.58 18.3733 11.6333 17.6066 10.9933 16.8933H14.04C14.9733 16.8933 15.76 16.5666 16.3867 15.9066C17.02 15.2533 17.34 14.46 17.34 13.5266V9.45996"
      fill="#25CBDB" />
    <path
      d="M4.83331 13.46C4.58665 13.46 4.37998 13.36 4.19998 13.16C4.01998 12.96 3.93331 12.7266 3.93331 12.46C3.93331 12.1933 4.01998 11.96 4.19998 11.76C4.37998 11.56 4.58665 11.46 4.83331 11.46H9.79998C10.4466 11.46 10.9466 11.66 11.3 12.06C11.6533 12.46 11.8866 12.9266 12 13.46H4.83331ZM7.66665 26.0933C8.86665 26.0933 9.88665 25.6733 10.7333 24.8266C11.58 23.98 12 22.96 12 21.76C12 20.56 11.58 19.54 10.7333 18.6933C9.88665 17.8466 8.86665 17.4266 7.66665 17.4266C6.46665 17.4266 5.44665 17.8466 4.59998 18.6933C3.75331 19.54 3.33331 20.56 3.33331 21.76C3.33331 22.96 3.75331 23.98 4.59998 24.8266C5.44665 25.6733 6.46665 26.0933 7.66665 26.0933V26.0933ZM26.1666 26.0933C26.8533 26.0933 27.4466 25.8466 27.9333 25.36C28.42 24.8733 28.6666 24.28 28.6666 23.5933C28.6666 22.9066 28.42 22.3133 27.9333 21.8266C27.4466 21.34 26.8533 21.0933 26.1666 21.0933C25.48 21.0933 24.8866 21.34 24.4 21.8266C23.9133 22.3133 23.6666 22.9066 23.6666 23.5933C23.6666 24.28 23.9133 24.8733 24.4 25.36C24.8866 25.8466 25.48 26.0933 26.1666 26.0933ZM7.66665 24.0933C7.01998 24.0933 6.47331 23.8666 6.01331 23.4066C5.55998 22.9533 5.33331 22.4 5.33331 21.76C5.33331 21.12 5.55998 20.5666 6.01331 20.1066C6.46665 19.6533 7.01998 19.4266 7.66665 19.4266C8.31331 19.4266 8.85998 19.6533 9.31998 20.1066C9.77331 20.56 9.99998 21.1133 9.99998 21.76C9.99998 22.4066 9.77331 22.9533 9.31998 23.4066C8.86665 23.86 8.31331 24.0933 7.66665 24.0933ZM26.1666 28.0933C24.92 28.0933 23.86 27.6733 22.98 26.8266C22.1 25.98 21.6666 24.94 21.6666 23.6933C21.6666 22.4466 22.12 21.3733 23.0333 20.46C23.9466 19.5466 25.02 19.0933 26.2666 19.0933C27.5133 19.0933 28.5533 19.5333 29.4 20.4133C30.2466 21.2933 30.6666 22.3533 30.6666 23.6C30.6666 24.8466 30.2266 25.9066 29.3533 26.7866C28.4733 27.6666 27.4133 28.1 26.1666 28.1V28.0933ZM7.59998 28.0933C5.84665 28.0933 4.35998 27.48 3.14665 26.24C1.93331 25.0066 1.33331 23.5133 1.33331 21.76C1.33331 20.0066 1.94665 18.5066 3.18665 17.2733C4.41998 16.04 5.91331 15.4266 7.66665 15.4266C9.41998 15.4266 10.92 16.0466 12.1533 17.2733C13.3866 18.5066 14 20 14 21.76C14 23.52 13.38 25.0133 12.1533 26.24C10.92 27.4733 9.39998 28.0933 7.59998 28.0933V28.0933Z"
      fill="#222343" />
  </g>
  <defs>
    <clipPath id="clip0_658_5849">
      <rect width="32" height="32" fill="white" />
    </clipPath>
  </defs>
</svg>