<svg width="32" height="32" viewBox="0 0 32 32" fill="none" xmlns="http://www.w3.org/2000/svg">
  <g clipPath="url(#clip0_658_5917)">
    <g opacity="0.85">
      <path
        d="M8.64542 24.371C8.52843 24.3719 8.4044 24.3504 8.27334 24.3067C7.82 24.1534 7.58667 23.8267 7.58667 23.34V4.54003C7.58667 4.12003 7.77334 3.82003 8.15334 3.64003C8.316 3.56298 8.47378 3.52502 8.6272 3.52615C8.47798 3.52725 8.32463 3.56521 8.16667 3.64003C7.78667 3.82003 7.60001 4.12003 7.60001 4.54003V23.34C7.60001 23.8267 7.83334 24.1534 8.28667 24.3067C8.41277 24.3487 8.53235 24.3702 8.64542 24.371Z"
        fill="#25CBDB" />
      <path d="M13.24 15.14L9.60667 20.24V6.57336L20.5067 15.14H13.24Z" fill="#25CBDB" />
    </g>
    <path
      d="M9.60667 20.24L13.24 15.14H20.5067L9.60667 6.57336V20.24ZM19.7733 28.3067C19.3533 28.5067 18.9267 28.5267 18.5067 28.3734C18.0867 28.22 17.7733 27.9267 17.5733 27.5067L13.34 18.44L9.40667 23.94C9.12001 24.34 8.74667 24.46 8.28667 24.3067C7.83334 24.1534 7.60001 23.8267 7.60001 23.34V4.54003C7.60001 4.12003 7.78667 3.82003 8.16667 3.64003C8.54667 3.46003 8.90001 3.49336 9.23334 3.74003L24 15.34C24.38 15.6534 24.48 16.0267 24.3133 16.4734C24.1467 16.92 23.8267 17.14 23.3667 17.14H16.4333L20.5667 26.1067C20.7667 26.5267 20.7867 26.9534 20.6333 27.3734C20.48 27.7934 20.1867 28.1067 19.7667 28.3067H19.7733Z"
      fill="#222343" />
  </g>
  <defs>
    <clipPath id="clip0_658_5917">
      <rect width="32" height="32" fill="white" />
    </clipPath>
  </defs>
</svg>