<svg width="32" height="32" viewBox="0 0 32 32" fill="none" xmlns="http://www.w3.org/2000/svg">
  <g clipPath="url(#clip0_659_6550)">
    <path opacity="0.5" fill-rule="evenodd" clip-rule="evenodd"
      d="M20.4067 5.55341C19.0467 4.96675 17.56 4.66675 16 4.66675C14.46 4.66675 12.9867 4.96675 11.6267 5.55341C10.2467 6.14675 9.01999 6.96675 7.99332 7.98675C6.96666 9.00008 6.14666 10.2134 5.55332 11.5934C4.96666 12.9534 4.66666 14.4601 4.66666 16.0001C4.66666 17.5401 4.96666 19.0134 5.55332 20.3734C6.15332 21.7534 6.97332 22.9734 7.99999 24.0001C9.02666 25.0267 10.2467 25.8534 11.6267 26.4467C12.9867 27.0334 14.44 27.3334 16 27.3334C17.56 27.3334 19.0467 27.0334 20.4067 26.4467C21.7867 25.8467 23 25.0267 24.0133 24.0067C25.0333 22.9801 25.8467 21.7601 26.4467 20.3734C27.0333 19.0134 27.3333 17.5601 27.3333 16.0001C27.3333 14.4401 27.0333 12.9534 26.4467 11.5934C25.8533 10.2067 25.0333 8.99341 24.02 7.98008C23.0067 6.96675 21.7867 6.14675 20.4067 5.55341ZM20.8667 16L16 20.8666L14.6 19.4666L17.0667 17H11V15H17.0667L14.6 12.5333L16 11.1333L20.8667 16Z"
      fill="#25CBDB" />
    <path
      d="M16 4.66675C17.56 4.66675 19.0467 4.96675 20.4067 5.55341C21.7867 6.14675 23.0067 6.96675 24.02 7.98008C25.0333 8.99342 25.8533 10.2067 26.4467 11.5934C27.0333 12.9534 27.3333 14.4401 27.3333 16.0001C27.3333 17.5601 27.0333 19.0134 26.4467 20.3734C25.8467 21.7601 25.0333 22.9801 24.0133 24.0067C23 25.0267 21.7867 25.8467 20.4067 26.4467C19.0467 27.0334 17.56 27.3334 16 27.3334C14.44 27.3334 12.9867 27.0334 11.6267 26.4467C10.2467 25.8534 9.02667 25.0267 8 24.0001C6.97334 22.9734 6.15334 21.7534 5.55334 20.3734C4.96667 19.0134 4.66667 17.5401 4.66667 16.0001C4.66667 14.4601 4.96667 12.9534 5.55334 11.5934C6.14667 10.2134 6.96667 9.00008 7.99334 7.98675C9.02 6.96675 10.2467 6.14675 11.6267 5.55341C12.9867 4.96675 14.46 4.66675 16 4.66675M16 2.66675C14.18 2.66675 12.4533 3.01341 10.8333 3.71341C9.21334 4.41341 7.79334 5.36675 6.58 6.56675C5.36667 7.76675 4.41334 9.18008 3.71334 10.8001C3.01334 12.4201 2.66 14.1534 2.66 16.0001C2.66 17.8467 3.00667 19.5467 3.71334 21.1667C4.41334 22.7867 5.36667 24.2067 6.58 25.4201C7.79334 26.6334 9.20667 27.5867 10.8333 28.2867C12.4533 28.9867 14.18 29.3401 16 29.3401C17.82 29.3401 19.58 28.9867 21.2 28.2867C22.82 27.5867 24.2333 26.6334 25.4333 25.4201C26.6333 24.2067 27.58 22.7934 28.2867 21.1667C28.9867 19.5467 29.3333 17.8201 29.3333 16.0001C29.3333 14.1801 28.9867 12.4201 28.2867 10.8001C27.5867 9.18008 26.6333 7.76675 25.4333 6.56675C24.2333 5.36675 22.82 4.42008 21.2 3.71341C19.58 3.01341 17.8467 2.66675 16 2.66675V2.66675Z"
      fill="#222343" />
    <path
      d="M16 20.8666L20.8667 16L16 11.1333L14.6 12.5333L17.0667 15H11V17H17.0667L14.6 19.4666L16 20.8666Z"
      fill="#222343" />
  </g>
  <defs>
    <clipPath id="clip0_659_6550">
      <rect width="32" height="32" fill="white" />
    </clipPath>
  </defs>
</svg>