<svg width="32" height="32" viewBox="0 0 32 32" fill="none" xmlns="http://www.w3.org/2000/svg">
  <g clipPath="url(#clip0_640_9349)">
    <path opacity="0.5"
      d="M16 29.3333C14.18 29.3333 12.4534 28.9867 10.8334 28.28C9.21335 27.58 7.79335 26.6267 6.58002 25.4133C5.36669 24.2 4.41335 22.7867 3.71335 21.16C3.01335 19.54 2.66669 17.8133 2.66669 15.9933C2.66669 14.1733 3.02002 12.4133 3.71335 10.7933C4.41335 9.17332 5.36669 7.75999 6.58002 6.55999C7.79335 5.35999 9.20669 4.41332 10.8334 3.70665C12.4534 3.00665 14.18 2.65332 16 2.65332C17.82 2.65332 19.58 3.00665 21.2 3.69999C22.82 4.39999 24.2334 5.35332 25.4334 6.55332C26.6334 7.75332 27.5867 9.16665 28.2867 10.7867C28.9867 12.4067 29.34 14.14 29.34 15.9867C29.34 17.8333 28.9934 19.5333 28.2867 21.1533C27.5867 22.7733 26.6334 24.1933 25.4334 25.4067C24.2334 26.62 22.82 27.5733 21.2 28.2733C19.58 28.9733 17.8467 29.3267 16 29.3267V29.3333Z"
      fill="#222343" />
    <path
      d="M16 4.66675C17.56 4.66675 19.0467 4.96675 20.4067 5.55341C21.7867 6.14675 23.0067 6.96675 24.02 7.98008C25.0334 8.99341 25.8534 10.2067 26.4467 11.5934C27.0334 12.9534 27.3334 14.4401 27.3334 16.0001C27.3334 17.5601 27.0334 19.0134 26.4467 20.3734C25.8467 21.7601 25.0334 22.9801 24.0134 24.0067C23 25.0267 21.7867 25.8467 20.4067 26.4467C19.0467 27.0334 17.56 27.3334 16 27.3334C14.44 27.3334 12.9867 27.0334 11.6267 26.4467C10.2467 25.8534 9.02669 25.0267 8.00002 24.0001C6.97335 22.9734 6.15335 21.7534 5.55335 20.3734C4.96669 19.0134 4.66669 17.5401 4.66669 16.0001C4.66669 14.4601 4.96669 12.9534 5.55335 11.5934C6.14669 10.2134 6.96669 9.00008 7.99335 7.98675C9.02002 6.96675 10.2467 6.14675 11.6267 5.55341C12.9867 4.96675 14.46 4.66675 16 4.66675ZM16 2.66675C14.18 2.66675 12.4534 3.01341 10.8334 3.71341C9.21335 4.41341 7.79335 5.36675 6.58002 6.56675C5.36669 7.76675 4.41335 9.18008 3.71335 10.8001C3.01335 12.4201 2.66669 14.1534 2.66669 16.0001C2.66669 17.8467 3.02002 19.5467 3.71335 21.1667C4.41335 22.7867 5.36669 24.2067 6.58002 25.4201C7.79335 26.6334 9.20669 27.5867 10.8334 28.2867C12.46 28.9867 14.18 29.3401 16 29.3401C17.82 29.3401 19.58 28.9867 21.2 28.2867C22.82 27.5867 24.2334 26.6334 25.4334 25.4201C26.6334 24.2067 27.5867 22.7934 28.2867 21.1667C28.9867 19.5467 29.3334 17.8201 29.3334 16.0001C29.3334 14.1801 28.9867 12.4201 28.2867 10.8001C27.5867 9.18008 26.6334 7.76675 25.4334 6.56675C24.2334 5.36675 22.82 4.42008 21.2 3.71341C19.58 3.01341 17.8467 2.66675 16 2.66675Z"
      fill="#222343" />
    <path
      d="M16 20.8666L20.8667 16L16 11.1333L14.6 12.5333L17.0667 15H11V17H17.0667L14.6 19.4666L16 20.8666Z"
      fill="#222343" />
  </g>
  <defs>
    <clipPath id="clip0_640_9349">
      <rect width="32" height="32" fill="white" />
    </clipPath>
  </defs>
</svg>