<svg width="32" height="32" viewBox="0 0 32 32" fill="none" xmlns="http://www.w3.org/2000/svg">
  <g clipPath="url(#clip0_640_9353)">
    <path opacity="0.32"
      d="M13.3267 18.44L9.39334 23.94C9.10667 24.34 8.73334 24.46 8.27334 24.3067C7.82 24.1534 7.58667 23.8267 7.58667 23.34V4.54003C7.58667 4.12003 7.77334 3.82003 8.15334 3.64003C8.53334 3.46003 8.88667 3.49336 9.22 3.74003L23.9867 15.34C24.3667 15.6534 24.4667 16.0267 24.3 16.4734C24.1333 16.92 23.8133 17.14 23.3533 17.14H16.42"
      fill="#222343" />
    <path
      d="M9.60664 20.24L13.24 15.14H20.5066L9.60664 6.57336V20.24ZM19.7733 28.3067C19.3533 28.5067 18.9266 28.5267 18.5066 28.3734C18.0866 28.22 17.7733 27.9267 17.5733 27.5067L13.34 18.44L9.40664 23.94C9.11998 24.34 8.74664 24.46 8.28664 24.3067C7.83331 24.1534 7.59998 23.8267 7.59998 23.34V4.54003C7.59998 4.12003 7.78664 3.82003 8.16664 3.64003C8.54664 3.46003 8.89998 3.49336 9.23331 3.74003L24 15.34C24.38 15.6534 24.48 16.0267 24.3133 16.4734C24.1466 16.92 23.8266 17.14 23.3666 17.14H16.4333L20.5666 26.1067C20.7666 26.5267 20.7866 26.9534 20.6333 27.3734C20.48 27.7934 20.1866 28.1067 19.7666 28.3067H19.7733Z"
      fill="#222343" />
  </g>
  <defs>
    <clipPath id="clip0_640_9353">
      <rect width="32" height="32" fill="white" />
    </clipPath>
  </defs>
</svg>