<svg width="32" height="32" viewBox="0 0 32 32" fill="none" xmlns="http://www.w3.org/2000/svg">
  <g clipPath="url(#clip0_640_9342)">
    <path
      d="M4.83331 12.8334C4.58665 12.8334 4.37998 12.7334 4.19998 12.5334C4.01998 12.3334 3.93331 12.1001 3.93331 11.8334C3.93331 11.5668 4.01998 11.3334 4.19998 11.1334C4.37998 10.9334 4.58665 10.8334 4.83331 10.8334H9.79998C10.4466 10.8334 10.9466 11.0334 11.3 11.4334C11.6533 11.8334 11.8866 12.3001 12 12.8334H4.83331ZM7.66665 25.4668C8.86665 25.4668 9.88665 25.0468 10.7333 24.2001C11.58 23.3534 12 22.3334 12 21.1334C12 19.9334 11.58 18.9134 10.7333 18.0668C9.88665 17.2201 8.86665 16.8001 7.66665 16.8001C6.46665 16.8001 5.44665 17.2201 4.59998 18.0668C3.75331 18.9134 3.33331 19.9334 3.33331 21.1334C3.33331 22.3334 3.75331 23.3534 4.59998 24.2001C5.44665 25.0468 6.46665 25.4668 7.66665 25.4668ZM26.1666 25.4668C26.8533 25.4668 27.4466 25.2201 27.9333 24.7334C28.42 24.2468 28.6666 23.6534 28.6666 22.9668C28.6666 22.2801 28.42 21.6868 27.9333 21.2001C27.4466 20.7134 26.8533 20.4668 26.1666 20.4668C25.48 20.4668 24.8866 20.7134 24.4 21.2001C23.9133 21.6868 23.6666 22.2801 23.6666 22.9668C23.6666 23.6534 23.9133 24.2468 24.4 24.7334C24.8866 25.2201 25.48 25.4668 26.1666 25.4668ZM7.66665 23.4668C7.01998 23.4668 6.47331 23.2401 6.01331 22.7801C5.55998 22.3268 5.33331 21.7734 5.33331 21.1334C5.33331 20.4934 5.55998 19.9401 6.01331 19.4801C6.46665 19.0268 7.01998 18.8001 7.66665 18.8001C8.31331 18.8001 8.85998 19.0268 9.31998 19.4801C9.77331 19.9334 9.99998 20.4868 9.99998 21.1334C9.99998 21.7801 9.77331 22.3268 9.31998 22.7801C8.86665 23.2334 8.31331 23.4668 7.66665 23.4668ZM26.1666 27.4668C24.92 27.4668 23.86 27.0468 22.98 26.2001C22.1 25.3534 21.6666 24.3134 21.6666 23.0668C21.6666 21.8201 22.12 20.7468 23.0333 19.8334C23.9466 18.9201 25.02 18.4668 26.2666 18.4668C27.5133 18.4668 28.5533 18.9068 29.4 19.7868C30.2466 20.6668 30.6666 21.7268 30.6666 22.9734C30.6666 24.2201 30.2266 25.2801 29.3533 26.1601C28.4733 27.0401 27.4133 27.4734 26.1666 27.4734V27.4668ZM7.59998 27.4668C5.84665 27.4668 4.35998 26.8534 3.14665 25.6134C1.93331 24.3801 1.33331 22.8868 1.33331 21.1334C1.33331 19.3801 1.94665 17.8801 3.18665 16.6468C4.41998 15.4134 5.91331 14.8001 7.66665 14.8001C9.41998 14.8001 10.92 15.4201 12.1533 16.6468C13.3866 17.8801 14 19.3734 14 21.1334C14 22.8934 13.38 24.3868 12.1533 25.6134C10.92 26.8468 9.39998 27.4668 7.59998 27.4668ZM14.9333 22.1334C14.9533 21.9534 14.9733 21.7868 14.9866 21.6334C15 21.4801 15 21.3134 15 21.1334C15 20.2468 14.8533 19.3868 14.5666 18.5668C14.28 17.7468 13.8133 16.9801 13.1666 16.2668H14.0333C14.9666 16.2668 15.7533 15.9401 16.38 15.2801C17.0133 14.6268 17.3333 13.8334 17.3333 12.9001V9.43345L15.7 7.83345L13.6666 9.86678L13.0333 9.26678L17.7666 4.53345L18.3666 5.13345L16.3 7.20011L17.9333 8.83345H27C27.58 8.83345 28.0533 9.02011 28.4333 9.40011C28.8133 9.78011 29 10.2534 29 10.8334V18.2668C28.58 18.0201 28.14 17.8268 27.6866 17.6801C27.2333 17.5334 26.76 17.4601 26.2733 17.4601C24.9866 17.4601 23.8266 17.8868 22.7933 18.7401C21.76 19.5934 21.0733 20.7268 20.74 22.1268H14.94L14.9333 22.1334Z"
      fill="#222343" />
  </g>
  <defs>
    <clipPath id="clip0_640_9342">
      <rect width="32" height="32" fill="white" />
    </clipPath>
  </defs>
</svg>