<svg width="32" height="32" viewBox="0 0 32 32" fill="none" xmlns="http://www.w3.org/2000/svg">
  <g clipPath="url(#clip0_640_9346)">
    <path
      d="M16 20.8667L20.8667 16L16 11.1333L14.6 12.5333L17.0667 15H11V17H17.0667L14.6 19.4667L16 20.8667ZM16 29.3333C14.18 29.3333 12.4534 28.9867 10.8334 28.28C9.21335 27.58 7.79335 26.6267 6.58002 25.4133C5.36669 24.2 4.41335 22.7867 3.71335 21.16C3.01335 19.54 2.66669 17.8133 2.66669 15.9933C2.66669 14.1733 3.02002 12.4133 3.71335 10.7933C4.41335 9.17332 5.36669 7.75999 6.58002 6.55999C7.79335 5.35999 9.20669 4.41332 10.8334 3.70665C12.4534 3.00665 14.18 2.65332 16 2.65332C17.82 2.65332 19.58 3.00665 21.2 3.69999C22.82 4.39999 24.2334 5.35332 25.4334 6.55332C26.6334 7.75332 27.5867 9.16665 28.2867 10.7867C28.9867 12.4067 29.34 14.14 29.34 15.9867C29.34 17.8333 28.9934 19.5333 28.2867 21.1533C27.5867 22.7733 26.6334 24.1933 25.4334 25.4067C24.2334 26.62 22.82 27.5733 21.2 28.2733C19.58 28.9733 17.8467 29.3267 16 29.3267V29.3333Z"
      fill="#222343" />
  </g>
  <defs>
    <clipPath id="clip0_640_9346">
      <rect width="32" height="32" fill="white" />
    </clipPath>
  </defs>
</svg>